# xmcd CD database file
#
# Track frame offsets:
#	150
#	30110
#	51262
#
# Disc length: 1069 seconds
#
# Revision: 1
# Processed by: cddbd v1.5.2PL0 Copyright (c) Steve Scherf et al.
# Submitted via: CDex 1.70beta2
#
DISCID=18042b03
DTITLE=fra-foa - 月と砂漠
DYEAR=2000
DGENRE=JPop
TTITLE0=月と砂漠
TTITLE1=三日月の孤独
TTITLE2=月と砂漠 Dub Mix
EXTD=YEAR: 2000
EXTT0=
EXTT1=
EXTT2=
PLAYORDER=
